<?xml version="1.0" encoding="utf-8"?>

<!DOCTYPE svg PUBLIC "-//W3C//DTD SVG 1.0//EN" "http://www.w3.org/TR/2001/REC-SVG-20010904/DTD/svg10.dtd">
<!-- Uploaded to: SVG Repo, www.svgrepo.com, Generator: SVG Repo Mixer Tools -->
<svg version="1.0" id="Layer_1" xmlns="http://www.w3.org/2000/svg" xmlns:xlink="http://www.w3.org/1999/xlink" 
	 width="800px" height="800px" viewBox="0 0 64 64" enable-background="new 0 0 64 64" xml:space="preserve">
<g>
	<rect x="16" y="34" fill="#231F20" width="6" height="6"/>
	<rect x="42" y="34" fill="#231F20" width="6" height="6"/>
	<path fill="#231F20" d="M63.211,29.789L34.438,1.015c0,0-0.937-1.015-2.43-1.015s-2.376,0.991-2.376,0.991L20,10.604V5
		c0-0.553-0.447-1-1-1h-6c-0.553,0-1,0.447-1,1v13.589L0.783,29.783C0.24,30.326,0,31.172,0,32c0,1.656,1.343,3,3,3
		c0.828,0,1.662-0.251,2.205-0.794L6,33.411V60c0,2.211,1.789,4,4,4h44c2.211,0,4-1.789,4-4V33.394l0.804,0.804
		C59.347,34.739,60.172,35,61,35c1.657,0,3-1.343,3-3C64,31.171,63.754,30.332,63.211,29.789z M24,41c0,0.553-0.447,1-1,1h-8
		c-0.553,0-1-0.447-1-1v-8c0-0.553,0.447-1,1-1h8c0.553,0,1,0.447,1,1V41z M38,62.002H26v-15c0-0.553,0.447-1,1-1h10
		c0.553,0,1,0.447,1,1V62.002z M50,41c0,0.553-0.447,1-1,1h-8c-0.553,0-1-0.447-1-1v-8c0-0.553,0.447-1,1-1h8c0.553,0,1,0.447,1,1
		V41z M61,33c-0.276,0-0.602-0.036-0.782-0.217L32.716,5.281c-0.195-0.195-0.451-0.293-0.707-0.293s-0.512,0.098-0.707,0.293
		L3.791,32.793C3.61,32.974,3.276,33,3,33c-0.553,0-1-0.447-1-1c0-0.276,0.016-0.622,0.197-0.803L31.035,2.41
		c0,0,0.373-0.41,0.974-0.41s0.982,0.398,0.982,0.398l28.806,28.805C61.978,31.384,62,31.724,62,32C62,32.552,61.553,33,61,33z"/>
</g>
</svg>